<?xml version="1.0" encoding="UTF-8"?>
<svg width="136" height="40" id="Layer_1" xmlns="http://www.w3.org/2000/svg" viewBox="0 0 130 40">
  <defs>
    <style>
      .cls-1 {
        fill: #144a93;
      }

      .cls-2 {
        fill: #fba919;
      }

      .cls-3 {
        fill: #1b1b1b;
      }

      .cls-4 {
        fill: #ba2126;
      }
    </style>
  </defs>
  <g>
    <path class="cls-1" d="M32.43,1.99c-8.22-1.08-11.71,5.96-11.71,5.96l-6.96,12.12h0c5.1,0,9.82-2.73,12.37-7.15l6.3-10.93Z"/>
    <path class="cls-2" d="M32.43,38.15c5.06-6.57.72-13.12.72-13.12l-7.01-12.12h0c-2.55,4.43-2.55,9.89,0,14.32l6.29,10.92Z"/>
    <path class="cls-4" d="M1.14,20.06c3.17,7.67,11,7.17,11,7.17l13.98-.02h0c-2.55-4.42-7.26-7.15-12.37-7.15H1.14Z"/>
  </g>
  <g>
    <polygon class="cls-3" points="50.48 12.41 47.04 12.41 47.04 27.61 48.74 27.61 50.48 27.61 59.51 27.61 59.51 24.7 50.48 24.7 50.48 12.41"/>
    <path class="cls-3" d="M67.88,14.89c-1.64,0-3,.27-4.09.8-1.09.54-1.9,1.28-2.43,2.25-.53.96-.8,2.12-.8,3.46s.29,2.52.86,3.47c.57.96,1.44,1.68,2.59,2.17,1.16.49,2.59.74,4.3.74,1.36,0,2.5-.13,3.42-.4.92-.27,1.86-.67,2.82-1.2l-1.46-2.5c-.62.54-1.3.93-2.06,1.18-.75.25-1.6.38-2.55.38s-1.76-.14-2.42-.42c-.67-.28-1.18-.71-1.55-1.28-.21-.33-.36-.71-.45-1.14h10.93v-1c0-2.08-.56-3.69-1.69-4.82-1.13-1.13-2.93-1.69-5.42-1.69ZM65.87,17.85c.61-.3,1.32-.45,2.12-.45.88,0,1.58.14,2.12.42.54.28.94.72,1.21,1.32.15.34.26.74.32,1.18h-7.58c.08-.42.21-.8.4-1.14.33-.6.8-1.05,1.41-1.35Z"/>
    <path class="cls-3" d="M89.72,16.16c-.98-.83-2.35-1.25-4.13-1.25-1.55,0-2.82.33-3.82.99-.61.4-1.1.94-1.46,1.62l-.86-2.43h-2.28v12.53h3.34v-6.71c.13-1.01.51-1.8,1.14-2.38.66-.6,1.56-.9,2.71-.9s1.98.27,2.57.81c.6.54.89,1.34.89,2.4v6.77h3.36v-7.77c0-1.62-.49-2.85-1.46-3.68Z"/>
    <path class="cls-3" d="M101.6,25.09c-.33.07-.67.11-1.01.11-.55,0-.96-.06-1.24-.17-.28-.12-.47-.28-.57-.49-.1-.21-.15-.52-.15-.92v-5.97h4.2v-2.56h-4.2v-2.67h-2.05l-1.16,2.67h-2.59v2.56h2.44l-.03,6.58c0,.85.18,1.55.53,2.08.35.54.86.92,1.54,1.15.67.23,1.53.35,2.56.35.92,0,1.92-.1,2.99-.3l-.28-2.71c-.33.13-.66.23-.99.3Z"/>
    <path class="cls-3" d="M112.95,14.91c-.89,0-1.7.17-2.44.52-.74.35-1.34.84-1.8,1.47-.17.23-.32.48-.44.74l-.92-2.55h-2.28v12.53h3.32l.03-6.2c.05-.7.23-1.3.54-1.8.32-.51.75-.9,1.28-1.15.53-.25,1.18-.38,1.96-.38.3,0,.59,0,.87.01.28,0,.55.02.81.03v-3.15c-.09-.03-.21-.05-.37-.05-.16,0-.34-.01-.56-.01Z"/>
    <path class="cls-3" d="M127.36,16.13c-1.05-.8-2.79-1.2-5.23-1.2-1.31,0-2.53.16-3.67.48-1.14.32-2.13.74-2.96,1.26l1.42,2.52c.76-.59,1.55-1.02,2.37-1.29.82-.27,1.68-.4,2.58-.4,1.29,0,2.24.2,2.85.59.61.39.92,1,.92,1.82h0c-.07,0-.14.02-.22.02-2.3.13-4.11.31-5.44.55-1.33.24-2.38.66-3.15,1.25-.78.59-1.16,1.45-1.16,2.58s.37,1.92,1.11,2.54c.74.62,1.93.93,3.56.93s2.99-.34,4.06-1.03c.63-.41,1.12-.91,1.47-1.52l.79,2.37h2.28v-7.9c0-1.58-.52-2.77-1.57-3.57ZM124.31,24.68c-.83.48-1.81.72-2.94.72-.78,0-1.35-.12-1.73-.35-.38-.23-.57-.56-.57-1,0-.51.24-.9.72-1.17.48-.27,1.16-.49,2.02-.64.87-.15,2.06-.29,3.59-.4.08,0,.16,0,.24-.01v.71c-.06.95-.5,1.67-1.32,2.15Z"/>
  </g>
</svg>